<?xml version="1.0" encoding="utf-8"?>
<!-- Generator: Adobe Illustrator 21.1.0, SVG Export Plug-In . SVG Version: 6.00 Build 0)  -->
<svg version="1.1" id="Layer_1" xmlns="http://www.w3.org/2000/svg" xmlns:xlink="http://www.w3.org/1999/xlink" x="0px" y="0px"
	 viewBox="0 0 648 537" style="enable-background:new 0 0 648 537;" xml:space="preserve">
<style type="text/css">
	.st0{fill:#EDEDED;}
</style>
<g>
	<g>
		<g id="XMLID_146_">
			<path id="XMLID_147_" class="st0" d="M372.9,263c-0.5-0.3-4.2-0.6-9.9-5c-0.9-0.7-1.9-1.4-2.9-2.2c-5.4-4.1-11-9.2-14.8-14.3
				l0.8-0.6c3.6,4.9,9.7,9.4,15,13.5c1,0.8,2,1.5,2.9,2.2c5.6,4.3,9.8,5.4,10,5.5L372.9,263z"/>
		</g>
		<path id="XMLID_145_" class="st0" d="M337.3,214.8c0,0,19.7,6.1,10.2,29C347.6,243.8,327.7,236.5,337.3,214.8"/>
		<path id="XMLID_144_" class="st0" d="M338.5,220.9c0.2,0.7,0.4,1.7,0.7,2.8c0.2,0.6,0.3,1.2,0.5,1.9c0.2,0.7,0.4,1.4,0.7,2.1
			c0.2,0.7,0.5,1.5,0.7,2.2c0.3,0.7,0.5,1.5,0.8,2.3c1.1,3,2.3,6,3.3,8.2c0.5,1.1,0.9,2,1.2,2.7c0,0,0.2,0.3,0.2,0.4
			c0.6,0.4,0.9,0.4,0.9,0.4c0.1-0.3,0.4-0.1,0.5-0.4c-0.1-0.1-0.3-0.7-0.4-0.9c-0.3-0.6-0.8-1.5-1.3-2.6c-1.1-2.1-2.4-5-3.7-8
			c-0.3-0.7-0.6-1.5-0.9-2.2c-0.3-0.7-0.6-1.5-0.8-2.2c-0.3-0.7-0.5-1.4-0.8-2c-0.2-0.6-0.4-1.3-0.6-1.8
			C339.1,222.6,338.8,221.6,338.5,220.9c-0.1-0.7-0.2-1.1-0.2-1.1S338.4,220.2,338.5,220.9z"/>
		<g id="XMLID_142_">
			<path id="XMLID_143_" class="st0" d="M364,257.7c-0.2,0.2-0.5,0.3-0.7,0.2c-4.4-1.6-15-0.6-15.1-0.6c-0.3,0-0.6-0.2-0.7-0.6
				c0-0.3,0.2-0.6,0.6-0.7c0.4,0,10.9-1,15.6,0.7c0.3,0.1,0.5,0.5,0.4,0.8C364.1,257.6,364.1,257.7,364,257.7z"/>
		</g>
		<g id="XMLID_140_">
			<path id="XMLID_141_" class="st0" d="M358.3,253.7c-0.1,0.1-0.1,0.1-0.2,0.2c-0.2,0.1-0.5-0.1-0.6-0.3c-0.1-0.2-1.2-4.6,0.5-10.6
				c0.1-0.2,0-0.7,0.2-0.6c0.2,0.1,0.4,0.3,0.3,0.5c-1.6,5.7-0.2,10.3-0.2,10.4C358.4,253.4,358.4,253.5,358.3,253.7z"/>
		</g>
		<g id="XMLID_139_">
			<path class="st0" d="M357.9,244.7c0,0-5-5.5,1.9-13.7C359.8,231,366.3,238,357.9,244.7z"/>
		</g>
		<path id="XMLID_138_" class="st0" d="M357.7,244.4c0.1,0.2,0.1,0.6,0.1,0.6c0.1-0.1,0.3-0.2,0.4-0.3l1.2-9.1L357.7,244.4z"/>
		<path id="XMLID_137_" class="st0" d="M320.4,257.7c0,0,15.8,13.2,30.9-1.6C351.3,256.1,334.5,243.1,320.4,257.7"/>
		<path id="XMLID_136_" class="st0" d="M332.9,256.6c0.5,0,1.3-0.1,2.1-0.2c1.8-0.1,4.1-0.1,6.5,0c2.4,0.1,4.7,0.3,6.5,0.5
			c0.9,0.1,1.6,0.3,2.2,0.3c0,0,2.5-0.8,2.7-1l-1-0.3c0,0-1.1,0.1-1.6,0.1c-0.5,0-1.3-0.1-2.2-0.1c-1.8-0.1-4.2-0.1-6.5,0
			c-2.4,0.1-4.8,0.3-6.5,0.5C334.1,256.3,333.4,256.4,332.9,256.6"/>
	</g>
</g>
<g>
	<g id="XMLID_109_">
		<path id="XMLID_110_" class="st0" d="M377.6,264.6c-0.9-0.6-8-1.9-18.2-11.5c-1.6-1.5-3.4-3.2-5.2-4.8c-9.8-9-19.6-19.9-25.9-30.4
			l1.6-0.9c6,10.1,16.9,20.1,26.5,29c1.8,1.7,3.6,3.3,5.2,4.8c10,9.4,18,12.3,18.3,12.5L377.6,264.6z"/>
	</g>
	<path id="XMLID_108_" class="st0" d="M317.8,164.7c0,0,37,15.4,14.4,58C332.2,222.7,295.1,205,317.8,164.7"/>
	<path id="XMLID_107_" class="st0" d="M319,176.8c0.2,1.4,0.4,3.3,0.8,5.6c0.2,1.2,0.4,2.4,0.7,3.7c0.3,1.3,0.6,2.7,0.9,4.1
		c0.3,1.4,0.7,2.9,1,4.4c0.4,1.5,0.7,3,1.2,4.5c1.6,6.1,3.4,12.1,4.9,16.5c0.7,2.2,1.4,4.1,1.8,5.4c0,0.1,0.2,0.7,0.3,0.7
		c1.1,0.9,1.6,0.9,1.6,0.9c0.3-0.5,0.7-0.2,1-0.7c-0.1-0.3-0.5-1.4-0.7-1.7c-0.5-1.3-1.2-3-2.1-5.2c-1.7-4.4-3.8-10.2-5.6-16.2
		c-0.5-1.5-0.9-3-1.4-4.4c-0.4-1.5-0.9-2.9-1.2-4.3c-0.4-1.4-0.8-2.8-1.1-4.1c-0.3-1.3-0.6-2.5-0.9-3.7c-0.5-2.3-0.9-4.2-1.1-5.5
		c-0.2-1.4-0.3-2.1-0.3-2.1S318.9,175.5,319,176.8z"/>
	<g id="XMLID_105_">
		<path id="XMLID_106_" class="st0" d="M361.5,252.8c-0.3,0.4-0.9,0.6-1.5,0.3c-8.2-3.9-28.8-4.1-29-4.1c-0.7,0-1.2-0.5-1.2-1.2
			c0-0.7,0.5-1.2,1.2-1.2c0.9,0,21.4,0.1,30.1,4.3c0.6,0.3,0.9,1,0.6,1.6C361.6,252.6,361.5,252.7,361.5,252.8z"/>
	</g>
	<g id="XMLID_103_">
		<path id="XMLID_104_" class="st0" d="M351.2,243.9c-0.1,0.1-0.3,0.2-0.5,0.3c-0.5,0.1-0.9-0.2-1-0.7c-0.1-0.4-1.4-9.1,3-20.4
			c0.2-0.4,0-1.3,0.5-1.2c0.4,0.2,0.7,0.7,0.5,1.1c-4.2,10.8-2.3,19.9-2.3,20C351.5,243.4,351.4,243.7,351.2,243.9z"/>
	</g>
	<path id="XMLID_101_" class="st0" d="M352,226.4c0,0-8.7-11.5,6.2-26.1C358.3,200.3,369.6,215.1,352,226.4z"/>
	<path id="XMLID_100_" class="st0" d="M351.7,225.9c0.2,0.4,0,1.2,0,1.2c0.2-0.2,0.5-0.4,0.8-0.6l4-17.4L351.7,225.9z"/>
	<path id="XMLID_99_" class="st0" d="M277,244.6c0,0,28.1,28.4,60.1,2.6C337.1,247.2,307.1,219.1,277,244.6"/>
	<path id="XMLID_98_" class="st0" d="M301.3,244.7c1,0,2.4,0,4.2,0.1c3.5,0.1,8,0.5,12.6,1.1c4.6,0.6,9.1,1.4,12.4,2.1
		c1.7,0.3,3.1,0.8,4.1,1c0.1,0,4.9-1.1,5.4-1.5l-1.9-0.8c0,0-2.1,0-3.1-0.2c-1-0.2-2.4-0.4-4.2-0.6c-3.4-0.5-8-1-12.7-1.3
		c-4.6-0.3-9.2-0.4-12.7-0.3c-1.7,0-3.2,0.1-4.2,0.2"/>
</g>
<g>
	<g>
		<g id="XMLID_120_">
			<path id="XMLID_121_" class="st0" d="M375.5,264.7c-0.9-0.8-8.4-2.8-18.3-14.1c-1.6-1.8-3.3-3.7-5.1-5.7
				c-9.5-10.6-19-23.3-24.6-35.1l1.8-0.8c5.4,11.4,16.1,23.2,25.5,33.7c1.8,2,3.5,3.9,5.1,5.7c9.7,11.1,18.1,15,18.3,15.2
				L375.5,264.7z"/>
		</g>
		<path id="XMLID_119_" class="st0" d="M321.7,151.8c0,0,38,20.2,9.5,63.5C331.2,215.3,293.2,192.6,321.7,151.8"/>
		<path id="XMLID_118_" class="st0" d="M321.7,164.9c0,1.5,0.1,3.6,0.3,6.1c0.1,1.3,0.2,2.6,0.4,4.1c0.1,1.4,0.3,3,0.5,4.5
			c0.2,1.6,0.4,3.2,0.7,4.8c0.3,1.6,0.5,3.3,0.8,5c1.1,6.6,2.4,13.2,3.5,18.2c0.6,2.5,1.1,4.5,1.4,5.9c0,0.1,0.2,0.7,0.2,0.8
			c1.1,1.1,1.6,1.1,1.6,1.1c0.3-0.5,0.8-0.1,1.1-0.6c-0.1-0.3-0.4-1.5-0.5-1.9c-0.4-1.4-1-3.4-1.7-5.8c-1.4-4.8-3-11.3-4.4-17.9
			c-0.4-1.6-0.7-3.3-1-4.9c-0.3-1.6-0.6-3.2-0.9-4.8c-0.3-1.5-0.5-3-0.7-4.5c-0.2-1.4-0.4-2.8-0.6-4c-0.3-2.5-0.5-4.6-0.6-6
			c-0.1-1.5-0.1-2.3-0.1-2.3S321.7,163.4,321.7,164.9z"/>
		<g id="XMLID_116_">
			<path id="XMLID_117_" class="st0" d="M359.4,250.4c-0.4,0.4-1.1,0.5-1.6,0.2c-8.4-5-30.4-7.3-30.6-7.3c-0.7-0.1-1.2-0.7-1.2-1.4
				c0.1-0.7,0.7-1.2,1.4-1.2c0.9,0.1,22.8,2.3,31.7,7.6c0.6,0.4,0.8,1.2,0.4,1.8C359.5,250.2,359.5,250.3,359.4,250.4z"/>
		</g>
		<g id="XMLID_114_">
			<path id="XMLID_115_" class="st0" d="M349.3,239.8c-0.1,0.1-0.3,0.2-0.5,0.3c-0.5,0.1-1-0.3-1-0.8c-0.1-0.4-0.6-9.9,5.2-21.5
				c0.2-0.5,0.2-1.4,0.6-1.2c0.5,0.2,0.6,0.8,0.4,1.2c-5.6,11.1-4.5,21.1-4.4,21.2C349.6,239.4,349.5,239.6,349.3,239.8z"/>
		</g>
		<g id="XMLID_113_">
			<path class="st0" d="M352,221.2c0,0-8.2-13.2,9.3-27.3C361.3,193.9,371.9,210.9,352,221.2z"/>
		</g>
		<path id="XMLID_112_" class="st0" d="M351.7,220.7c0.2,0.4-0.1,1.3-0.1,1.3c0.3-0.1,0.6-0.4,0.9-0.5l6.1-18.2L351.7,220.7z"/>
		<path id="XMLID_111_" class="st0" d="M269.9,233.1c0,0,27.2,33.3,64,8.9C333.9,242,304.6,208.8,269.9,233.1"/>
		<path id="XMLID_102_" class="st0" d="M295.9,235.7c1.1,0.1,2.6,0.3,4.5,0.5c3.7,0.5,8.5,1.4,13.3,2.5c4.8,1.1,9.6,2.4,13.1,3.5
			c1.8,0.5,3.3,1.2,4.3,1.5c0.1,0,5.3-0.6,6-1.1l-2-1c0,0-2.3-0.2-3.3-0.5c-1-0.3-2.6-0.6-4.4-1.1c-3.6-0.9-8.5-1.9-13.4-2.7
			c-4.9-0.8-9.8-1.4-13.6-1.6c-1.9-0.1-3.4-0.2-4.5-0.2"/>
	</g>
</g>
<g>
	<path class="st0" d="M252.6,338.1h-10.5v-77.8h10.5V338.1z"/>
	<path class="st0" d="M295.5,260.3c4.9,0,9.2,0.6,12.8,1.7c3.6,1.1,6.6,2.8,9,4.9c2.4,2.1,4.2,4.6,5.3,7.6c1.2,3,1.8,6.3,1.8,9.9
		c0,3.6-0.6,6.9-1.9,9.9c-1.3,3-3.1,5.6-5.6,7.8c-2.4,2.2-5.5,3.9-9.1,5.1c-3.6,1.2-7.8,1.8-12.5,1.8H283v29.1h-10.5v-77.8H295.5z
		 M295.5,300.7c3,0,5.7-0.4,7.9-1.2c2.3-0.8,4.2-1.9,5.8-3.3c1.6-1.4,2.8-3.1,3.6-5.1c0.8-2,1.2-4.2,1.2-6.6c0-5-1.5-8.8-4.6-11.6
		c-3.1-2.8-7.7-4.2-13.9-4.2H283v32H295.5z"/>
	<path class="st0" d="M409.5,299.3c0,5.8-0.9,11.2-2.8,16s-4.4,9.1-7.8,12.6c-3.4,3.5-7.4,6.2-12.1,8.2s-9.9,2.9-15.7,2.9
		c-5.7,0-10.9-1-15.6-2.9c-4.7-1.9-8.7-4.7-12.1-8.2c-3.4-3.5-6-7.7-7.8-12.6c-1.8-4.9-2.8-10.2-2.8-16c0-5.8,0.9-11.2,2.8-16
		c1.8-4.9,4.4-9.1,7.8-12.6c3.4-3.5,7.4-6.3,12.1-8.2c4.7-2,9.9-2.9,15.6-2.9c5.7,0,10.9,1,15.7,2.9c4.7,2,8.8,4.7,12.1,8.2
		c3.4,3.5,6,7.7,7.8,12.6C408.6,288.1,409.5,293.4,409.5,299.3z M398.7,299.3c0-4.8-0.7-9.1-2-12.9c-1.3-3.8-3.1-7-5.5-9.6
		c-2.4-2.6-5.3-4.6-8.7-6c-3.4-1.4-7.2-2.1-11.4-2.1c-4.2,0-7.9,0.7-11.3,2.1c-3.4,1.4-6.3,3.4-8.7,6c-2.4,2.6-4.3,5.8-5.6,9.6
		c-1.3,3.8-2,8.1-2,12.9c0,4.8,0.7,9.1,2,12.8c1.3,3.8,3.2,7,5.6,9.6c2.4,2.6,5.3,4.6,8.7,6c3.4,1.4,7.2,2.1,11.3,2.1
		c4.2,0,8-0.7,11.4-2.1c3.4-1.4,6.3-3.4,8.7-6c2.4-2.6,4.2-5.8,5.5-9.6C398.1,308.3,398.7,304,398.7,299.3z"/>
	<path class="st0" d="M405.9,336c0-0.3,0.1-0.6,0.2-0.9s0.3-0.6,0.5-0.8c0.2-0.2,0.5-0.4,0.8-0.5s0.6-0.2,0.9-0.2s0.6,0.1,0.9,0.2
		c0.3,0.1,0.6,0.3,0.8,0.5c0.2,0.2,0.4,0.5,0.5,0.8c0.1,0.3,0.2,0.6,0.2,0.9c0,0.3-0.1,0.7-0.2,1c-0.1,0.3-0.3,0.5-0.5,0.8
		c-0.2,0.2-0.5,0.4-0.8,0.5c-0.3,0.1-0.6,0.2-0.9,0.2s-0.6-0.1-0.9-0.2s-0.5-0.3-0.8-0.5c-0.2-0.2-0.4-0.5-0.5-0.8
		C405.9,336.6,405.9,336.3,405.9,336z"/>
	<path class="st0" d="M425.6,321.8c-0.2,0.3-0.4,0.4-0.7,0.4c-0.2,0-0.4-0.1-0.7-0.2c-0.2-0.1-0.5-0.3-0.9-0.5
		c-0.4-0.2-0.8-0.3-1.3-0.5c-0.5-0.1-1.1-0.2-1.7-0.2c-0.6,0-1.1,0.1-1.6,0.2c-0.5,0.1-0.9,0.3-1.2,0.6c-0.3,0.3-0.6,0.6-0.8,0.9
		c-0.2,0.3-0.3,0.7-0.3,1.1c0,0.5,0.1,0.9,0.4,1.2c0.3,0.3,0.7,0.6,1.1,0.9s1,0.5,1.6,0.6s1.2,0.4,1.9,0.6c0.6,0.2,1.3,0.4,1.9,0.7
		c0.6,0.3,1.1,0.6,1.6,1s0.9,0.9,1.1,1.4s0.4,1.2,0.4,2c0,0.9-0.2,1.7-0.5,2.5c-0.3,0.8-0.8,1.4-1.4,2c-0.6,0.6-1.4,1-2.3,1.3
		c-0.9,0.3-2,0.5-3.2,0.5c-1.4,0-2.6-0.2-3.7-0.7c-1.1-0.4-2-1-2.8-1.7l0.8-1.3c0.1-0.2,0.2-0.3,0.4-0.4c0.1-0.1,0.3-0.1,0.5-0.1
		c0.2,0,0.5,0.1,0.7,0.3s0.6,0.4,0.9,0.6c0.4,0.2,0.8,0.4,1.3,0.6s1.2,0.3,2,0.3c0.7,0,1.2-0.1,1.8-0.3c0.5-0.2,0.9-0.4,1.3-0.7
		c0.3-0.3,0.6-0.6,0.7-1s0.2-0.8,0.2-1.2c0-0.5-0.1-1-0.4-1.3c-0.3-0.4-0.7-0.7-1.1-0.9s-1-0.5-1.6-0.7c-0.6-0.2-1.2-0.4-1.9-0.6
		s-1.3-0.4-1.9-0.7c-0.6-0.3-1.2-0.6-1.6-1c-0.5-0.4-0.9-0.9-1.1-1.5c-0.3-0.6-0.4-1.3-0.4-2.1c0-0.7,0.2-1.5,0.5-2.1
		c0.3-0.7,0.8-1.3,1.3-1.8c0.6-0.5,1.3-0.9,2.2-1.2c0.9-0.3,1.8-0.5,2.9-0.5c1.3,0,2.4,0.2,3.5,0.6s1.9,1,2.6,1.7L425.6,321.8z"/>
	<path class="st0" d="M445.5,335.4c-0.4,0.5-0.9,1-1.5,1.3c-0.6,0.4-1.2,0.7-1.9,0.9c-0.7,0.2-1.4,0.4-2.1,0.5
		c-0.7,0.1-1.4,0.2-2.1,0.2c-1.3,0-2.6-0.2-3.7-0.7c-1.1-0.5-2.1-1.1-2.9-2s-1.5-2-1.9-3.3c-0.5-1.3-0.7-2.8-0.7-4.5
		c0-1.4,0.2-2.6,0.6-3.8c0.4-1.2,1-2.2,1.8-3.1c0.8-0.9,1.7-1.5,2.9-2s2.4-0.7,3.8-0.7c1.2,0,2.2,0.2,3.2,0.6s1.9,1,2.6,1.7
		c0.7,0.7,1.3,1.6,1.7,2.7s0.6,2.3,0.6,3.7c0,0.5-0.1,0.9-0.2,1.1s-0.3,0.3-0.7,0.3h-13c0,1.2,0.2,2.3,0.5,3.2
		c0.3,0.9,0.7,1.7,1.3,2.3s1.2,1.1,1.9,1.4s1.6,0.5,2.5,0.5c0.9,0,1.6-0.1,2.2-0.3c0.6-0.2,1.2-0.4,1.6-0.6c0.4-0.2,0.8-0.4,1.1-0.6
		c0.3-0.2,0.6-0.3,0.8-0.3c0.3,0,0.5,0.1,0.7,0.3L445.5,335.4z M442.7,326.2c0-0.8-0.1-1.5-0.3-2.2s-0.6-1.2-1-1.7
		c-0.4-0.5-1-0.9-1.6-1.1c-0.6-0.3-1.3-0.4-2.1-0.4c-1.6,0-2.9,0.5-3.9,1.4s-1.5,2.3-1.8,4H442.7z"/>
</g>
</svg>
