<svg xmlns="http://www.w3.org/2000/svg" viewBox="0 0 555.93 510.8"><defs><style>.cls-1{fill:#fff}</style></defs><title>logo-white</title><g id="Layer_2" data-name="Layer 2"><g id="Layer_4" data-name="Layer 4"><g id="_Group_" data-name="&lt;Group&gt;"><path id="_Path_" data-name="&lt;Path&gt;" class="cls-1" d="M356.95 303.48c-1.39-.76-11.48-1.53-27-13.54-2.5-1.93-5.16-3.95-7.91-6-14.86-11.26-30.12-25.2-40.31-39l2.06-1.53c9.81 13.24 26.38 25.79 41 36.87 2.77 2.1 5.44 4.12 8 6.07 15.23 11.79 26.88 14.81 27.22 15z"/></g><path id="_Path_2" data-name="&lt;Path&gt;" class="cls-1" d="M259.92 172s53.82 16.52 27.94 79.12c0 0-54.32-19.72-27.94-79.12"/><path id="_Path_3" data-name="&lt;Path&gt;" class="cls-1" d="M263.2 188.76c.42 1.87 1.07 4.54 1.94 7.72.47 1.58.93 3.31 1.5 5.1s1.15 3.71 1.79 5.66 1.34 4 2 6 1.45 4.11 2.22 6.17c3 8.25 6.39 16.39 9.05 22.43 1.32 3 2.49 5.55 3.3 7.28l.46 1c1.7 1.17 2.35 1 2.35 1 .29-.7 1-.38 1.25-1.07-.2-.38-.87-1.83-1.15-2.35-.9-1.7-2.15-4.09-3.61-7-2.93-5.86-6.66-13.78-10.07-21.84-.87-2-1.69-4-2.51-6s-1.6-4-2.32-5.89-1.43-3.78-2.06-5.55-1.2-3.46-1.74-5c-1-3.12-1.8-5.75-2.31-7.6l-.75-2.92z"/><g id="_Group_2" data-name="&lt;Group&gt;"><path id="_Path_4" data-name="&lt;Path&gt;" class="cls-1" d="M332.75 289.11a1.7 1.7 0 0 1-2 .64c-12-4.39-40.82-1.76-41.11-1.73a1.7 1.7 0 1 1-.32-3.39c1.21-.11 29.85-2.72 42.59 1.93a1.7 1.7 0 0 1 .82 2.56z"/></g><g id="_Group_3" data-name="&lt;Group&gt;"><path id="_Path_5" data-name="&lt;Path&gt;" class="cls-1" d="M317.24 278.08a1.21 1.21 0 0 1-2.16-.31c-.17-.54-3.2-12.55 1.41-28.83.18-.65-.13-1.86.51-1.68a1.21 1.21 0 0 1 .84 1.5 53.66 53.66 0 0 0-.44 28.24 1.21 1.21 0 0 1-.16 1.08z"/></g><path class="cls-1" d="M316 253.53s-13.77-14.92 5.15-37.33c.04 0 17.85 19.22-5.15 37.33z" id="_Group_4" data-name="&lt;Group&gt;"/><path id="_Path_6" data-name="&lt;Path&gt;" class="cls-1" d="M315.5 252.89a3 3 0 0 1 .2 1.7c.32-.25.69-.67 1-.92l3.3-24.83z"/><path id="_Path_7" data-name="&lt;Path&gt;" class="cls-1" d="M213.72 289.13s43.09 35.93 84.29-4.46c0 0-45.78-35.3-84.29 4.46"/><path id="_Path_8" data-name="&lt;Path&gt;" class="cls-1" d="M247.69 286c1.41-.13 3.42-.29 5.84-.41 4.84-.28 11.3-.37 17.74-.13s12.86.76 17.67 1.28c2.4.26 4.49.71 5.9.9.11 0 6.69-2.16 7.4-2.83l-2.82-.83a41.45 41.45 0 0 1-4.38.19c-1.4-.09-3.46-.2-5.89-.29-4.87-.2-11.38-.32-17.87-.12s-13 .7-17.79 1.3c-2.41.29-4.42.58-5.81.8"/><g id="_Group_5" data-name="&lt;Group&gt;"><path id="_Path_9" data-name="&lt;Path&gt;" class="cls-1" d="M369.88 308c-2.55-1.74-21.94-5.11-49.72-31.27-4.47-4.21-9.24-8.61-14.19-13.17-26.66-24.59-53.58-54.44-70.73-83l4.27-2.57c16.49 27.5 46.23 54.91 72.49 79.1 5 4.58 9.76 9 14.25 13.23C353.5 296 375.48 304 376.1 304.45z"/></g><path id="_Path_10" data-name="&lt;Path&gt;" class="cls-1" d="M206.71 35.24S307.79 77.31 246 193.65c0 0-101.45-48.37-39.25-158.41"/><path id="_Path_11" data-name="&lt;Path&gt;" class="cls-1" d="M209.92 68.35c.46 3.71 1.22 9 2.32 15.3.61 3.14 1.17 6.57 1.94 10.16s1.52 7.39 2.41 11.3 1.84 7.93 2.81 12 2 8.23 3.15 12.36c4.32 16.54 9.29 32.92 13.32 45.12 2 6.09 3.78 11.21 5 14.71l.72 2c3.07 2.58 4.36 2.36 4.36 2.36.69-1.3 2-.55 2.62-1.84-.32-.77-1.34-3.7-1.78-4.77-1.43-3.46-3.4-8.32-5.68-14.29-4.58-11.89-10.3-27.92-15.4-44.17-1.31-4.05-2.51-8.13-3.73-12.14s-2.35-8-3.38-11.83-2.06-7.58-2.94-11.13-1.67-6.92-2.42-10c-1.4-6.23-2.41-11.46-3-15.14l-.91-5.79z"/><g id="_Group_6" data-name="&lt;Group&gt;"><path id="_Path_12" data-name="&lt;Path&gt;" class="cls-1" d="M325.73 275.66a3.31 3.31 0 0 1-4 .86c-22.47-10.75-78.7-11.07-79.26-11.07a3.31 3.31 0 0 1 0-6.62c2.37 0 58.3.33 82.1 11.72a3.31 3.31 0 0 1 1.11 5.11z"/></g><g id="_Group_7" data-name="&lt;Group&gt;"><path id="_Path_13" data-name="&lt;Path&gt;" class="cls-1" d="M297.78 251.41a2.36 2.36 0 0 1-4.12-1c-.23-1.08-3.84-24.89 8.14-55.55.47-1.22.09-3.62 1.3-3.15a2.36 2.36 0 0 1 1.34 3.06c-11.47 29.34-6.22 54.39-6.17 54.64a2.36 2.36 0 0 1-.49 2z"/></g><path id="_Path_14" data-name="&lt;Path&gt;" class="cls-1" d="M300.05 203.65s-23.86-31.46 17-71.3c-.05 0 30.95 40.56-17 71.3z"/><path id="_Path_15" data-name="&lt;Path&gt;" class="cls-1" d="M299.13 202.32c.63 1 .07 3.32.07 3.32.66-.43 1.46-1.17 2.09-1.6l11-47.44z"/><path id="_Path_16" data-name="&lt;Path&gt;" class="cls-1" d="M95.3 253.39s76.68 77.64 164 7.18c0 0-82-76.93-164-7.18"/><path id="_Path_17" data-name="&lt;Path&gt;" class="cls-1" d="M161.65 253.68c2.75 0 6.68.08 11.39.29 9.42.37 21.94 1.41 34.36 3.08s24.76 3.89 34 5.79c4.61.95 8.56 2.22 11.26 2.85.2 0 13.36-2.92 14.85-4.09l-5.3-2.13a80.63 80.63 0 0 1-8.52-.46c-2.7-.44-6.66-1-11.35-1.67-9.4-1.3-22-2.75-34.57-3.58s-25.23-1.07-34.68-.82c-4.73.1-8.66.3-11.41.46"/><g id="_Group_8" data-name="&lt;Group&gt;"><path id="_Path_18" data-name="&lt;Path&gt;" class="cls-1" d="M364 308.22c-2.55-2.12-22.94-7.68-50-38.48-4.35-5-9-10.14-13.84-15.52-26-29-51.79-63.64-67.24-95.91l4.83-2.31c14.86 31 43.87 63.37 69.47 91.88 4.85 5.4 9.53 10.62 13.9 15.6 26.57 30.23 49.27 41 49.89 41.55z"/></g><path id="_Path_19" data-name="&lt;Path&gt;" class="cls-1" d="M217.15 0S321 55.23 243.08 173.38c0 0-103.6-62-25.94-173.38"/><path id="_Path_20" data-name="&lt;Path&gt;" class="cls-1" d="M217.23 35.73c.12 4 .39 9.74.93 16.6.33 3.42.59 7.15 1 11.06s.88 8.06 1.43 12.32 1.17 8.67 1.79 13.15 1.34 9 2.11 13.54c2.95 18.13 6.6 36.15 9.67 49.6 1.51 6.72 2.91 12.37 3.89 16.24l.57 2.17c3 3.07 4.42 3 4.42 3 .87-1.32 2.17-.39 3-1.7-.26-.86-1.06-4.1-1.42-5.29-1.18-3.85-2.79-9.25-4.62-15.86-3.69-13.18-8.19-30.9-12-48.79-1-4.47-1.86-9-2.76-13.36s-1.7-8.77-2.41-13-1.43-8.31-2-12.2-1.08-7.57-1.58-11c-.86-6.81-1.42-12.5-1.73-16.5l-.39-6.29z"/><g id="_Group_9" data-name="&lt;Group&gt;"><path id="_Path_21" data-name="&lt;Path&gt;" class="cls-1" d="M320.09 269.15a3.56 3.56 0 0 1-4.33.52c-22.94-13.77-83-19.8-83.64-19.86a3.56 3.56 0 1 1 .7-7.08c2.53.25 62.31 6.26 86.61 20.84a3.56 3.56 0 0 1 .67 5.58z"/></g><g id="_Group_10" data-name="&lt;Group&gt;"><path id="_Path_22" data-name="&lt;Path&gt;" class="cls-1" d="M292.65 240.38a2.54 2.54 0 0 1-4.3-1.5c-.14-1.17-1.59-27 14.33-58.58.63-1.26.46-3.87 1.71-3.24a2.54 2.54 0 0 1 1.12 3.41c-15.23 30.22-12.16 57.53-12.13 57.8a2.53 2.53 0 0 1-.73 2.11z"/></g><path class="cls-1" d="M299.92 189.54s-22.33-36.06 25.37-74.54c0 0 29 46.52-25.37 74.54z" id="_Group_11" data-name="&lt;Group&gt;"/><path id="_Path_23" data-name="&lt;Path&gt;" class="cls-1" d="M299.06 188c.57 1.18-.26 3.56-.26 3.56.75-.39 1.68-1.11 2.4-1.5l16.56-49.62z"/><path id="_Path_24" data-name="&lt;Path&gt;" class="cls-1" d="M75.93 222s74.14 90.79 174.66 24.28c0 0-79.91-90.57-174.66-24.28"/><path id="_Path_25" data-name="&lt;Path&gt;" class="cls-1" d="M146.85 229c2.94.3 7.14.76 12.15 1.47 10 1.35 23.32 3.73 36.44 6.77s26.08 6.67 35.73 9.63c4.83 1.48 8.93 3.25 11.75 4.18.21.07 14.58-1.77 16.29-2.87l-5.45-2.81a86.61 86.61 0 0 1-9.07-1.36c-2.84-.74-7-1.77-12-2.94-9.92-2.34-23.21-5.17-36.61-7.33s-26.88-3.7-37-4.39c-5.06-.37-9.29-.56-12.24-.67"/><path class="cls-1" d="M28.73 508.58H0V296.35h28.73zm116.85-212.23q20.14 0 35 4.67t24.66 13.25A53.43 53.43 0 0 1 219.85 335a73 73 0 0 1 4.81 27.1 69.07 69.07 0 0 1-5.18 27.1 58.31 58.31 0 0 1-15.18 21.18 70.6 70.6 0 0 1-24.73 13.85q-14.74 5-34 5h-34.05v79.38H82.93V296.35zm0 110a66.18 66.18 0 0 0 21.7-3.26 45.23 45.23 0 0 0 15.84-9.09 37.43 37.43 0 0 0 9.7-14 47.87 47.87 0 0 0 3.26-17.92q0-20.29-12.51-31.69t-38-11.4h-34.05v87.38zm311.3-3.81a122.49 122.49 0 0 1-7.55 43.76A100.19 100.19 0 0 1 428 480.59a95.28 95.28 0 0 1-33.1 22.29q-19.33 7.92-42.73 7.92t-42.65-7.92a95.43 95.43 0 0 1-33-22.29 100.19 100.19 0 0 1-21.33-34.29 130.55 130.55 0 0 1 0-87.53 101 101 0 0 1 21.33-34.36 95.82 95.82 0 0 1 33-22.44q19.25-8 42.65-8t42.73 8a95.66 95.66 0 0 1 33.1 22.45 101 101 0 0 1 21.33 34.36 122.51 122.51 0 0 1 7.55 43.76zm-29.47 0q0-19.55-5.33-35.1A74.25 74.25 0 0 0 407 341.15a65.55 65.55 0 0 0-23.7-16.51 86.21 86.21 0 0 0-62.05 0 66.24 66.24 0 0 0-23.77 16.51 73.64 73.64 0 0 0-15.18 26.29q-5.33 15.55-5.33 35.1t5.33 35a73.71 73.71 0 0 0 15.18 26.21 65.42 65.42 0 0 0 23.77 16.44 87.27 87.27 0 0 0 62.05 0 64.74 64.74 0 0 0 23.7-16.41 74.32 74.32 0 0 0 15.11-26.21q5.3-15.48 5.3-35.03zM447 502.8a6.68 6.68 0 0 1 .5-2.57 6.61 6.61 0 0 1 1.37-2.1 6.55 6.55 0 0 1 7.22-1.42 6.65 6.65 0 0 1 3.52 3.52 6.4 6.4 0 0 1 .53 2.57 6.33 6.33 0 0 1-.53 2.6 6.85 6.85 0 0 1-1.42 2.08 6.39 6.39 0 0 1-2.1 1.39 6.88 6.88 0 0 1-5.15 0 6.09 6.09 0 0 1-2.08-1.39 6.68 6.68 0 0 1-1.37-2.08 6.6 6.6 0 0 1-.49-2.6zm53.89-38.65a2.07 2.07 0 0 1-1.94 1.16 3.65 3.65 0 0 1-1.79-.58q-1-.58-2.44-1.29a23 23 0 0 0-3.44-1.31 16.42 16.42 0 0 0-4.73-.6 14 14 0 0 0-4.25.6 10.22 10.22 0 0 0-3.23 1.65 7.32 7.32 0 0 0-2 2.44 6.56 6.56 0 0 0-.71 3 5 5 0 0 0 1.18 3.41 10.25 10.25 0 0 0 3.13 2.36 27.07 27.07 0 0 0 4.41 1.76q2.47.76 5.07 1.63t5.07 1.92a18.42 18.42 0 0 1 4.41 2.63 12 12 0 0 1 3.12 3.86 11.82 11.82 0 0 1 1.18 5.49 17.38 17.38 0 0 1-1.31 6.8 14.84 14.84 0 0 1-3.89 5.41 18.73 18.73 0 0 1-6.3 3.6 25.9 25.9 0 0 1-8.61 1.31 26.86 26.86 0 0 1-10.08-1.81A25.54 25.54 0 0 1 466 503l2.21-3.57a3.22 3.22 0 0 1 1-1.05 2.7 2.7 0 0 1 1.47-.37 3.52 3.52 0 0 1 2 .74q1 .74 2.55 1.63a19.35 19.35 0 0 0 3.65 1.63 16.73 16.73 0 0 0 5.36.74A14.61 14.61 0 0 0 489 502a10 10 0 0 0 3.41-1.92 7.59 7.59 0 0 0 2-2.78 8.66 8.66 0 0 0 .66-3.36 5.58 5.58 0 0 0-1.18-3.65 10 10 0 0 0-3.12-2.47 25.53 25.53 0 0 0-4.44-1.79q-2.5-.76-5.09-1.6t-5.09-1.92a17.88 17.88 0 0 1-4.44-2.71 12.24 12.24 0 0 1-3.12-4 13 13 0 0 1-1.18-5.8 14.15 14.15 0 0 1 1.26-5.86 14.36 14.36 0 0 1 3.68-4.94 18.11 18.11 0 0 1 5.93-3.39 23.75 23.75 0 0 1 8-1.26 25.42 25.42 0 0 1 9.43 1.65 22.34 22.34 0 0 1 7.22 4.54zm54.2 36.97a17.76 17.76 0 0 1-4.15 3.65 25.78 25.78 0 0 1-5.17 2.55 32.75 32.75 0 0 1-5.7 1.5 34.87 34.87 0 0 1-5.83.5 27.06 27.06 0 0 1-10.16-1.86 22.29 22.29 0 0 1-8-5.46 25.06 25.06 0 0 1-5.28-8.9 36.21 36.21 0 0 1-1.89-12.18 31 31 0 0 1 1.71-10.4 24.51 24.51 0 0 1 4.91-8.38 22.6 22.6 0 0 1 7.83-5.57 25.69 25.69 0 0 1 10.4-2 23.94 23.94 0 0 1 8.85 1.6 20 20 0 0 1 7 4.62 21.2 21.2 0 0 1 4.65 7.46 28.41 28.41 0 0 1 1.68 10.11 6.11 6.11 0 0 1-.47 2.94 2 2 0 0 1-1.79.74h-35.56a31.14 31.14 0 0 0 1.39 8.77 17.59 17.59 0 0 0 3.44 6.22 13.88 13.88 0 0 0 5.25 3.73A18 18 0 0 0 535 502a20 20 0 0 0 6.07-.81 29 29 0 0 0 4.38-1.76 33.11 33.11 0 0 0 3.07-1.76 4.07 4.07 0 0 1 2.13-.81 2.06 2.06 0 0 1 1.79.89zm-7.56-24.95a18.45 18.45 0 0 0-.92-6 13.39 13.39 0 0 0-2.68-4.67 12 12 0 0 0-4.28-3 14.45 14.45 0 0 0-5.72-1.08q-6.72 0-10.63 3.91t-4.86 10.84z"/></g></g></svg>